<?xml version="1.0" encoding="UTF-8"?>
<!DOCTYPE svg PUBLIC "-//W3C//DTD SVG 1.1//EN" "http://www.w3.org/Graphics/SVG/1.1/DTD/svg11.dtd">
<!-- Creator: CorelDRAW 2021 (64-Bit Versión de evaluación) -->
<svg xmlns="http://www.w3.org/2000/svg" xml:space="preserve" width="210mm" height="297mm" version="1.1" style="shape-rendering:geometricPrecision; text-rendering:geometricPrecision; image-rendering:optimizeQuality; fill-rule:evenodd; clip-rule:evenodd"
viewBox="0 0 21000 29700"
 xmlns:xlink="http://www.w3.org/1999/xlink"
 xmlns:xodm="http://www.corel.com/coreldraw/odm/2003">
 <defs>
  <style type="text/css">
   <![CDATA[
    .fil7 {fill:#1E264A}
    .fil15 {fill:#440B29}
    .fil0 {fill:#4D0B31}
    .fil3 {fill:#631141}
    .fil4 {fill:#79114E}
    .fil12 {fill:#82213B}
    .fil14 {fill:#984B55}
    .fil11 {fill:#AC6266}
    .fil5 {fill:#CC6E6E}
    .fil1 {fill:#CC7B83}
    .fil6 {fill:#D99291}
    .fil13 {fill:#DBAE9C}
    .fil8 {fill:#EAC5AB}
    .fil9 {fill:#FEBA76}
    .fil10 {fill:#FED6B9}
    .fil2 {fill:#FFC5A2}
   ]]>
  </style>
    <mask id="id0">
  <linearGradient id="id1" gradientUnits="userSpaceOnUse" x1="3139.66" y1="13518.7" x2="3365.72" y2="12785.29">
   <stop offset="0" style="stop-opacity:1; stop-color:white"/>
   <stop offset="0.509804" style="stop-opacity:0.717647; stop-color:white"/>
   <stop offset="1" style="stop-opacity:0.431373; stop-color:white"/>
  </linearGradient>
     <rect style="fill:url(#id1)" x="2065.32" y="12677.65" width="2052.77" height="2042"/>
    </mask>
 </defs>
 <g id="Capa_x0020_1">
  <metadata id="CorelCorpID_0Corel-Layer"/>
  <g id="_1716012453488">
   <path class="fil0" d="M5796.55 14958.26l1145.53 4.85c3.51,-8.54 6.94,-27.11 9.29,-38.45 3.72,-17.9 9.33,-19.23 12.29,-35.21 -26.7,5.44 -1161.04,-5.65 -1190.05,-6.94l22.94 75.75z"/>
   <path class="fil1" d="M6942.08 14963.11l-1145.53 -4.85c3.86,20.35 1.58,4.56 -3.8,10.69l-95.51 -1.58c24.56,11.63 77.17,19.66 99.27,26.29 12.06,3.62 14.19,-0.64 18.13,26.74l-81.3 -7.08c38.96,132.73 1085.36,60.19 1099.23,82.56l109.51 -132.77z"/>
   <path class="fil2" style="mask:url(#id0)" d="M3091.7 12677.65c566.86,0 1026.39,457.12 1026.39,1021 0,563.88 -459.53,1021 -1026.39,1021 -566.86,0 -1026.38,-457.12 -1026.38,-1021 0,-563.88 459.52,-1021 1026.38,-1021z"/>
   <path class="fil3" d="M21.3 13944.47c34.15,-23.54 101.23,-13.7 136.79,-6.22 35.88,122.66 -13.44,204.69 -72.53,247.72 11.29,22.75 22.59,45.5 33.88,68.25 131.27,82 4.02,402.75 -97.61,377.1 9.86,-238.51 -10.39,-448.35 -0.53,-686.85z"/>
   <path class="fil3" d="M1656.3 12988.59l-88.49 137.92c-16.13,18.64 -16.3,18.58 -28.29,31.1 -139.92,0.89 -151.94,-3.18 -214.86,65.29 -49.78,54.17 -78.3,88.37 -129.96,140.62 -55.61,56.27 -86.13,88.23 -131.25,139.19 -41.97,47.39 -83.78,83.56 -127.22,127.52 -3.68,-2.71 -8.4,-6.72 -10.61,-8.5 -2.16,-1.77 -7.87,-6.26 -10.53,-8.43 -2.63,-2.15 -7.48,-5.99 -10.35,-8.39l-38.67 -33.89c-77,-74.24 -73.63,-95.32 -209.46,-157.63 -128.69,-59.03 -151.42,-161.04 -243.22,-247.66 -22.96,16.43 6.3,-7.6 -32.08,26 -3.92,3.45 -15.51,14.02 -19.38,17.71l-340.98 354.88 0 135.62c55.41,-30.9 60.69,-18.38 96.74,-50.84l122.2 -122.87c60.95,-57.56 118.16,-62.25 150.89,-131.3 62.33,30.4 7.13,-79.52 55.27,-21.22l285.59 545.32c48.88,55.8 165.1,64.69 244.31,93.87 70.13,105.77 13.58,279.32 125.17,351.86 129.42,84.13 133.31,1.51 207.73,195.55l44.86 -43.4c76.53,66.16 55.77,107.76 86.58,207.73 44.65,144.95 38.73,112.88 119.35,116.39 50.4,-41.5 40.16,-53.07 69.35,-174.08 40.73,33.96 47.19,42.97 61.44,108.07 10.81,49.42 4.97,76.3 42.12,107.88 67.14,57.07 93.67,-14.96 229.27,62.63l-30.14 -37.8c113.39,-74.39 44.98,-29.58 67.71,-111.69 15.25,-55.08 35.75,-1.09 62.18,-144.44l-74.41 9.22c22.97,-81.47 100.64,-100.82 137.78,-179.83 -83.03,-138.76 -76.81,-96.85 -173.41,-191.19 168.35,-20.09 143.94,21.99 285.47,46.52 -109.64,-169.47 -294.85,-327.95 -344.37,-360.7l-20.45 -127.89c-17.27,-6.59 -53.11,-32.92 -55.7,-34.14 -42.3,-19.6 1.33,-40.32 -26.57,-59.32 -5.44,-107.45 -133.34,-162.75 -190.06,-248.85 -63.89,20.48 -113.32,12.67 -175.79,58.9 -65.91,48.8 3.52,101.06 -128.9,82.54l126.86 -263.3 135.34 15.69c59.94,-74.13 17.86,-134.25 172,-235.5l310.29 442.23c96.34,129.57 350.38,268.91 465.5,389.95 44.56,46.86 44.4,66.57 67.17,132.73 29.67,86.24 19.84,63.28 114.65,106.33 112.58,51.15 309.58,314.06 395.51,413.55 67.69,78.35 150.42,114.56 201.89,193.59 -10,12.5 -21.83,27.78 -32.28,37.51l-44.68 34.88c63.04,81.14 27.7,21.38 84.86,28.82 1.86,0.24 7.37,1.13 9.15,1.52l57.12 21.06 48.88 -129.6c3.66,3.58 8.62,4.59 10.12,11.29 1.45,6.61 7.67,8.49 9.57,11.34l55.03 114.41c14.56,-13.35 199.94,10.9 289.44,-16.49 23.37,-50.8 20.09,-48.05 20.09,-114.84 0.31,0.47 33.16,48.75 44.7,73.78 4.82,10.45 11.83,29.82 10.55,36.87l-34.94 53.48c35.79,26.38 2.04,13.09 67.9,21.27l13.83 -4.13c73.22,-25.69 2.78,10.48 38.74,-76.95 3.77,2.05 7.31,3.81 8.52,8.64 20.78,83.04 210.44,28.03 219.58,26.06l2.81 -10.14c57.83,2.02 88.42,2.83 146.54,-1.86l105.17 -28.5 -7.83 -104.08c-96.77,-40.78 -121.52,-27.04 -166.45,-98.69 -34.92,-55.7 -34.97,-84.78 -87.93,-137.89 -86.43,-66.18 -95.15,-207.81 -214.74,-335.51l-134.86 -153.79c-26.48,-33.04 -15.72,-29.16 -33.42,-54.06 -83.67,-117.74 -90.92,40.65 -236.08,-304.74l-228.04 -350.29c-52.18,73.79 -145.88,422.92 -216.02,478.06 -205.59,161.68 -5.68,68.69 -261.5,142.08 -33.37,-71.22 -83.47,-141.71 -124.29,-210.22 -68.67,-115.16 -82.4,-101.4 -187.88,-159.45 -89.35,-49.17 -283.49,-286.34 -328.81,-368.12 -40.66,-21.29 -71.35,-68.21 -107.33,-96.15 -41.33,-32.09 -78.53,-51.23 -121.09,-82.5 -52.39,-38.54 -61.16,-63.8 -113.82,-102.76 -42.13,-31.16 -81.18,-58.86 -125.71,-78.68l-62.97 64.83z"/>
   <path class="fil4" d="M2061.57 14651.6l26.63 -38.88c41.56,62.52 -9.53,34.89 74.72,55.91 196.47,24.24 55.96,-80.46 355.54,175.94 51.08,-38.13 31.44,-37.04 68.45,-87.01 20.95,38.25 20.02,34.37 30.87,72.46 11.26,39.57 5.89,54.97 26.98,82.52 2.43,3.14 16.68,13.27 23.71,14.7 102.6,20.97 -53.99,-35.35 84.41,3.53 55.56,-98.71 29.03,-41.07 116.53,-101.44 72.65,-50.15 36.1,-60.67 89.56,-117.71 21.26,63.28 33.8,127.14 69.14,164.63 40.09,42.57 107.03,61.34 179.3,38.27l44.68 -34.88c10.45,-9.73 22.28,-25.01 32.28,-37.51 -51.47,-79.03 -121.4,-141.45 -189.09,-219.8 -85.93,-99.49 -285.49,-377.71 -398.07,-428.84 -94.82,-43.07 -79.85,-4.8 -109.52,-91.04 -22.78,-66.17 -17.5,-83.68 -62.06,-130.55 -115.12,-121.03 -339.6,-269.01 -435.93,-398.59l-351.5 -447.24c-154.15,101.25 -162.1,186.5 -222.05,260.62l-105.91 -55.89 -168.06 341.18c132.41,18.53 127.63,-14.12 193.54,-62.92 62.47,-46.23 100.24,-83.16 164.13,-103.64 56.72,86.1 57.5,228.62 62.94,336.07 27.91,19.01 -5.75,-0.15 36.55,19.47 2.59,1.21 20.95,6.73 38.22,13.31l5.53 131.27c49.5,32.74 349.88,143 459.52,312.47 -141.54,-24.53 -117.09,-54.81 -285.44,-34.72 96.59,94.34 104.6,59.19 187.63,197.95 -37.15,79.01 -94.67,98.11 -117.64,179.58l74.41 -9.22z"/>
   <path class="fil4" d="M19.34 13697.58l0 246.99 138.75 -6.32c4.44,133.01 -1.8,164.72 -72.54,247.72 58.01,149.57 94.87,61.63 125.06,322.11 5.89,50.76 6.12,91 41.92,125.19l36.41 -88.64 71.56 24.51 62.16 -90.38c70.04,139.85 21.78,164.24 211.93,221.12l50.31 -64.17c31.04,-46.92 13.61,-34.25 50.25,-68.19 51.85,58.29 75.3,141.9 95.6,229.57 203.48,26.71 132.82,-93.53 206.05,-178.1 39.78,65.41 25.91,61.17 36.79,93.45 2.71,0.58 7.17,-4.61 7.86,-2.42 22.59,73.76 -5.51,-57.35 44.84,10.4 20.71,27.88 19.86,64.75 38.24,102.55 34.37,-0.87 48.48,3.68 85.13,-21.18 44.34,-30.07 32.94,-3.91 -36.13,-41.69l26.17 -15.19c71.76,-62.73 24.71,-34.22 34.09,-83.33 15.51,-81.16 37.57,1.59 35.06,-101.27 -74.42,-194.04 -50.6,-167.22 -180.02,-251.35 -111.58,-72.54 -62.13,-217.92 -132.27,-323.69 -79.21,-29.18 -168.94,-40.59 -217.82,-96.39l-332.69 -515.17c-48.14,-58.3 -5.22,-20.38 -67.55,-50.78 -32.73,69.05 -84.31,116.46 -145.24,174.02l-125.52 128.54c-36.06,32.45 -32.99,41.19 -88.4,72.09z"/>
   <path class="fil5" d="M5735.63 15026.84l31.23 63.26 31.37 -2.61 1.02 -5.59c178.33,0.37 362.63,-5.5 540.49,-7.26 184.34,-1.82 358.75,7.05 538.16,9.73l-47.33 -55.3 -7.83 0 -1087.11 -2.23z"/>
   <polygon class="fil6" points="5719.6,15006.29 5735.63,15026.84 6822.74,15029.07 6812.17,15017.23 6874.59,15007.06 6803.83,15004.82 6417.98,14997.68 6400.42,14999.57 6245.95,15000.68 6234.74,14999.16 "/>
   <path class="fil7" d="M341.81 14777.35c-0.55,10.67 5.28,8.65 -11.93,11.69 -4.66,0.83 -16.03,0.88 -20.83,0.58 -37.8,-2.33 -27.79,-10.41 -28.45,-13.93 19.85,-2.19 43.34,-5.99 61.21,1.66zm6689.6 844.13l-7010.11 0 0.53 -990.17 16.1 -0.6c9.71,-39.51 1.97,-26.8 17.94,-30.64 -8.4,-14.17 -8.13,-13.69 -2.71,-36.12 2.85,-11.76 5.29,-26.8 8.72,-39.91l71.15 -333.51 34.05 -139.56 51.44 215.48 -75.38 35.3 84.14 1.98 34.05 152.06 39.63 185.09c6.6,14.49 23.25,72.45 20.88,90.35l-73.95 -1.45c13,9.37 35.16,7.72 51.59,11.78 51.83,12.82 14.85,12.52 37.93,15.73 7.39,-14.16 20.51,-38.32 26.69,-54.38l21.54 -70.79c10.26,-44.31 48.71,-106.87 65.77,-153.59 18.84,-51.56 110.64,-51.24 148.8,-85.06 -75.7,-3.88 -114.75,13.3 -110.86,-13.11l46.98 -14.37 138.26 -15.78 -60.62 -17.98 -93.12 -25.5 276.88 -705.79 155.63 389.84 -90.77 46.31 110.53 2.43 48.55 125.45 -81.86 -0.99 94.23 28.32c6.98,36.26 -38.93,2.53 -66.91,15.32 94.63,19.06 71.51,-1.86 127.31,140.75 16.57,42.34 66.07,149.05 71.43,185.12l-193.96 -2.38 221.61 58.99 -3.05 9.39 -172.53 -15.54c22.89,12.17 88.67,26.79 121.68,35.8 81.93,22.38 56.13,1.98 86.31,61.89l134.2 295.14 -94.74 -8.39c29.37,35.13 157.93,25.52 160.08,93.03l-123.56 -0.27c35.87,10.94 124.25,-5.8 138.23,25.7 15.04,33.9 -13.28,105.62 7.85,134.52l9.31 34.33c43.81,15.52 206.9,46.96 245.37,32.35l3.53 -1.54 -49.1 0.38 14.99 -59.42 42.56 -105.25 45.39 -241.06 107.93 -14.48 -67.15 -21.49 107.85 -356.09c26.11,5.27 12,26.28 31.04,61.3 10.3,18.95 76.55,43.02 48.67,55.78 30.41,7.97 -30.61,1.17 -23.22,35.21l114.89 126.17c18.69,66.98 40.89,148.35 61,215.51l-2.41 -8.08c10.82,7.38 38.38,13.8 45.89,18.92 30.02,20.51 -7.52,22.35 -14.47,26.28 52.43,5.36 21.2,28.83 47.1,53.57l5.62 28.35 -45.26 48.09 53.4 155.06 19.15 65.76c7.82,26.97 99.24,34.02 131.22,40.83l376.37 113.71c48.09,11.96 93.84,23.78 141.25,35.67 79.66,19.98 66.06,10.86 145.4,-6.99 57.67,-12.97 252.52,-49.22 290.3,-64.98 21.65,-1.69 58.69,-10.48 80.69,-15.21 24.14,-5.2 61.49,-8.92 78.89,-19.08l831.26 -150.87 39.66 -85.25 29.52 -57.47 41.18 -5.41 -31.09 -10.04 -0.54 -12.96c9.48,-6.71 20.28,-30.96 23.62,-43.69l25.61 -51.55 10.81 -23.58 13.33 22.67 -3.97 28.41 2.06 -5.76 30.56 36.8 7.81 20.55 15.21 63.26 18.07 3.14c-3.71,12.41 12.44,5.31 -11.89,8.77 16.51,3.55 15.12,1.99 22.39,14.16l16.96 34.05 10.99 24.79 153.71 -22.28 325.92 -46.49c14.94,-1.41 55.22,-4 65.74,-10.42l37.7 -1.6 36.88 -6.97 113.06 -14.41 13.24 -38.01 4.76 -21.58 41.62 -125.13 45.96 -131.48 93.46 -9.33 -80.98 -26.65 14.57 -47.76 101.4 -319.85 37.32 -103.03 27.57 77.94 32.92 96.67 -47.76 24.57 56.88 2.76 23.48 68.3 90.42 272.27 22.94 75.75c3.86,20.36 1.58,4.56 -3.8,10.69l-95.51 -1.58c24.56,11.62 77.17,19.66 99.27,26.29 12.07,3.62 14.19,-0.64 18.13,26.74l-81.3 -7.08c50.93,19.55 80.14,13.56 94.02,35.93 790.64,32.28 991.96,37.17 994.91,22.92 20.19,-97.55 -5.51,-101.7 103.38,-126.79l-74.27 -2.4c6.99,-73.05 34.88,-38.71 80.7,-74.39l-64.5 1.19 15.91 -81.22 22.19 -90.49 43.98 -11.58 -40.48 -2.53 37.46 -57.25 8.83 2.86 -34.04 -1.12 51.89 -234.72 58.09 198.85 0 1028.9z"/>
   <path class="fil0" d="M1225.93 14681.64l112.06 287.58 -72.6 -0.83c29.37,35.13 102.47,18.9 104.62,86.41l-104.75 1.62c35.87,10.94 112.05,17.89 126.03,49.39 15.03,33.89 27.91,89.7 49.04,118.6l6.61 -12.3 26.85 46.01c29.82,-29.07 12.84,-41.58 32.08,-63.61 14.52,-16.6 3.92,-19.88 15.57,-25.03l15.05 22.63 29.69 -71.48 -162.5 0.03c28.44,-9.02 105.17,0.12 149.82,-4.55 43.31,-4.52 7.1,-9.19 31.62,-16.33 -5.75,23.86 -32.08,58.7 2.67,71.03l126.86 -48.59 75.28 -236.34 78.03 -19.2 -67.14 -21.49 107.85 -356.09c26.11,5.27 12,26.28 31.04,61.3 10.3,18.95 24.11,44.66 -3.77,57.42 30.4,7.97 21.82,-0.47 29.22,33.57l46.05 145.84c18.68,66.98 39.25,128.68 59.36,195.84l-43.67 1.18c10.82,7.38 38.38,13.8 45.89,18.92 30.02,20.51 -7.52,22.35 -14.47,26.28 52.43,5.36 21.2,28.83 47.1,53.57l-10.86 -32.88c3.25,-11.29 -0.66,-4.59 12.81,-7.17l60.48 0.09c134.84,1.21 475.86,31.36 558.78,38.47 1.96,-35.01 22.84,-3.16 20.59,-14.17 -0.02,-0.09 -50.02,-21.41 20.71,-24.43l13.9 35.82 -3.3 2.13c32.48,0.24 69.35,-2.54 99.61,-0.22 11.66,-8.74 12.84,-26.85 20.26,-39.57 47.21,-5.41 35.78,-0.74 40.19,5.37 2.89,-4.29 3.16,-4.75 6.5,-8.4l46.66 -0.36 13.13 41.51 9.19 3.96c6.18,-10.57 0,-14.36 10.56,-24.74 5.67,-5.58 -0.59,-0.93 8.47,-6.54 2.05,10.88 3.58,-14.02 8,-5.7l9.7 -3.36 24.28 -32.4 20.39 34.94 11.76 21.58c3.38,8.86 5.98,12.8 7.01,22.4 6.92,2.88 89.37,11.09 107.08,-3 -1.91,-21.53 1.36,-3.03 -8.01,-15.2 18.27,-9.03 19.3,-8.23 22.86,-30.89l36.12 -1.71c11.02,11.52 5.86,17.35 18.24,36.13l4.42 14.31 19.27 -48.66 19.45 39.84 19.36 -43.37 4.3 0.6 18.82 55.31 24.98 -58.58 841.95 -75.61 333.35 -0.61 18.87 46.85 33.51 -45.83 65.97 -0.14c17.26,38.36 33.02,47.69 33.47,48.4 10.75,16.92 2.35,-11.41 0.67,4.47 -2.99,28.37 17.89,43.82 28.11,77.48l5.46 1.52c5.61,-7.2 8.86,-14.1 12.34,-22.36 2.53,-6.02 2.55,-7.31 4.52,-13.1 1.81,-5.31 0.79,-3.38 2.84,-7.71 18.1,-38.42 18.08,-41.76 38.3,-40.06 -3.78,1.97 -6.24,2.65 -9.82,4.64 -5.1,2.83 -4.28,2.34 -6.67,4.55l33.7 72.93 8.55 -1.89c9.18,-27.18 14.2,-38.93 24.55,-54.99 53.61,-83.2 -18.31,-23.6 11.73,-53.02l30.11 -21.75 55.17 1.36c16.34,33.28 36.78,118.6 81.05,123.99 27.71,11.32 147.81,9.98 170.06,11.23l11.35 2.47 26.52 -56.8 -27.19 -1.6 4.55 -10.31c66.53,-14.53 46.71,-62.18 52.24,-64.33 34.17,-11.47 80.33,-11.52 91.98,14.19l45.96 -131.48 93.46 -9.33 -80.98 -26.65 14.57 -47.76 -37.92 -86.04 -36.94 91.7c-0.15,12.81 -2.91,3.91 13.71,13.43l-20.69 2.31c21.35,10.51 1.49,-2.69 -12.35,34.14 -8.14,21.69 -11.8,45.03 -26.59,45.73 -21.56,-2.78 -7.65,6.07 -16.96,-11.12 -17.05,-31.46 8.68,-23.47 -30.41,-37.75 20.37,-0.39 11.39,2.28 14.42,-8.78l-16.87 -8.08c19.76,-0.46 7.66,-13.58 1.84,-27.86 -5.83,-14.3 -11.3,-24.38 -14.88,-39.49l-38.87 -16.55c24.93,-10.78 35.28,9.63 23.79,-19.91 -4.07,-10.47 -10.86,-27.13 -15.02,-35.59 -11.71,-23.78 -9.68,-9.68 -11.28,-26.11 -2.23,-23.11 -4.72,-14.21 -24.08,-21.43 21.87,-10.13 -2.9,-65.14 -17.03,-80.57l-29.76 70.5 -24.74 -40.45 -7.65 3.31c23.42,-14.66 12.4,-18.1 1.5,-45.14 -6.6,-16.34 -13.56,-34.45 -18.58,-51.11l-67.19 160.06 30.95 11.39 -36.36 4.41c11.61,23.04 13.41,-4.59 -9.46,24 -9.22,11.53 -15.53,40.94 -20.66,46.66l-49.65 131.98c-41.37,-1.11 -30.97,1.15 -40.97,-26.41 -7.27,-20.02 -5.87,-29.07 -28.17,-34.63l2.3 -0.75c9.74,-6.45 9.32,4.96 1.3,-2.76 -3.8,-3.66 -6.88,-3.23 -12.21,-4.53l17.46 -6.65c-6.68,-14.85 -21.83,-44 -18.94,-56.65l-33.17 -70.85c-8.22,18.38 -14.24,37.57 -22.02,57.24 -3.75,9.51 -11.33,22.58 -12.72,30.35 -4.89,27.14 1.37,3.57 12.07,18.47 -36.69,5.56 -40.96,-82.69 -57.99,-106.41l-33.67 87.81c-4.77,33.13 12.38,0.49 1.3,19.26 -7.85,13.3 -30.71,39.49 -41.57,84.92 -62.35,-1.3 -44.97,5.07 -60.45,-33.48 -7.95,-19.8 -14.3,-39.58 -25.69,-58.3l-33.34 86.22 -1140.94 -50.79 -26.34 -74.07 -16.04 -23.78 -16.89 54.22 -5.09 0.38 -18.63 -42.16 -16.42 37.42 -4.26 0.28 -18.58 -46.61 -9.21 9.81c0.09,13.81 -18.45,65.59 -29.81,76.48 -14.96,-15.84 -13.34,-40.38 -34.06,-70.34l-31.6 -81.36 -14.54 28.43 -22.23 -59.27c-6.59,15.8 -13.09,31.98 -19.29,47.58 -14.62,36.81 5.73,18.4 -10.89,38.42 -19.16,23.07 -20.86,85.4 -49.5,92.79l-38.05 -96.94 -21.22 39.15 -18.49 -38.71 -14.97 39.43c-1.27,4.53 -1.27,2.86 -3.67,9.67 -18.13,51.51 -19.59,-23.59 -23.08,-27.5 -12.43,17.44 -33.63,49.97 -48.71,64.38l-27.95 -62.55c-10.52,-12.61 -4.12,-6.2 -16.23,-16.23 -15.34,-12.7 11.22,1.38 -11.28,-47.88 -13.19,-28.89 -22.63,-66.85 -32.35,-75.17 -6.82,18.29 -15.71,38.21 -22.65,56.8 -14.34,38.37 8.26,26.8 -5.23,38.49 -28.03,24.29 -33.9,89.84 -56.45,100.93 -27.49,-8.24 0.01,-76.08 -60.28,-90.05l-8.79 -10.15c40.82,-4.46 28.99,-2.51 11.44,-42.8 -13.54,-31.11 -4.15,-37.85 -34.78,-49.13 21.71,-8.21 -2.56,-61.04 -15.59,-73.7l-33.53 75.06 -31.28 -99.19c-9.52,14.36 -14.62,43.97 -19.61,61.11 -10.09,34.62 -23.62,38.6 3.26,55.39l-8.2 -3.94 -23.67 35.63c-10.06,-17.56 -7.81,-20.41 -13.54,-33.82 -12.51,-29.25 -15.03,-1.78 -11.53,-23.15 2.19,-13.42 -7.81,-49.65 -19.14,-65.97 -13.45,16.01 -18.3,47.87 -25.84,70.28 -9.48,28.24 -29.14,49.15 1.03,57.63l-24.62 19.4 -28.8 -93.52c-11.82,12.35 -16.52,38.84 -22.48,56.55 -25.06,74.39 5.38,27.99 -3.77,47.81l-10.03 2.74 -44.02 -109.4 -15.02 27.35c-7.14,-14.84 -3.93,-19.32 -14.23,-31.28 -11.72,-13.59 -5.57,-3.4 -6.56,-19.41 -0.8,-12.88 -16.49,-45.84 -23.86,-62.31l-26.48 60.35 -32.58 -56.01 -8.39 3.25c24.19,-7.47 8.12,-27.03 0.33,-45.99 -5.66,-13.8 -10.36,-35.32 -20.1,-45.25 -10.37,13.86 -28.13,68.4 -35.72,88.22 -15.35,40.07 -39.32,57.8 0.9,76.38l-30.87 4.64 8.62 5.45 -27.5 30.38 -38.54 -10.58 40.03 1.32 -43.91 -12.89 37.74 -6.47c-9.36,-28.04 -21.9,-94.54 -55.03,-99.66 9.08,-6.81 23.09,6.45 9.15,-24.34 -11.11,-24.52 -10.15,-7.48 -30.28,-16.96 36.18,-18.42 -18.83,-90.54 -27.54,-123.36l-95.49 255.04 -32.68 -65.89 -32.49 78.33 -32.19 -97.25c-9.37,9.49 -16.25,44.29 -20.52,58.04 -7.15,23.04 -21.92,42.13 0.71,52.44l-31.85 31.33 -39.4 -121.04c-15.08,13.84 -20.56,49.62 -27.62,71.47 -13.54,41.9 -26.44,37.81 2.42,58.92l-28.77 9.24 -27.78 -85.52c-13.5,18.81 -44.57,97.98 -18.31,102.04 -31.38,6.73 -51.26,-78.62 -59.43,-103.93l-14.57 26.31 -46.19 -112.98 -26.96 60.25c-33.69,-68.64 -31.43,-69.4 -55.41,-142.25 -17.68,3.88 -33.7,69.06 -40.76,87.51 -13.68,35.72 -40.8,63.46 2.08,74.57l-33.46 5.92c16.55,23.35 6.5,-3.84 -10.23,26.69 -5.78,10.56 -13.7,36.34 -19.11,49.93 -15.52,39.02 -15.37,86.32 -64.97,82.19z"/>
   <path class="fil8" d="M3299.27 15024.64l-17.73 21.35 -7.68 19.83 -16.74 52.1 -9.83 35.3 -1.75 29.39 -0.04 23.74 1.94 48.51c33.85,-9.84 180.14,-1.41 234.62,-3.08l23.72 1.07c13.82,4.16 -0.88,-6.87 10.49,5.35 22.53,-3.17 177.76,-39.35 199.73,-47.04l400.36 -93.17c84.86,-18.91 107.27,-42.86 202.71,-26.9l-0.97 -3.71 -7.35 -20.51 -7.84 -20.6 -11.27 -23.04 -48.56 -64.72 -833.21 25.59 -24.98 58.58 -18.82 -55.31 -4.3 -0.61 -19.36 43.38 -19.45 -39.84 -19.28 48.66 -4.41 -14.32z"/>
   <path class="fil9" d="M2194.74 15384.52c7.82,26.96 99.24,34.01 131.22,40.82l431.7 100.22c48.1,11.96 93.84,23.78 141.25,35.67 79.66,19.98 66.06,10.86 145.4,-6.99 57.67,-12.97 252.52,-49.22 290.3,-64.99l-8.5 -1.62 26.42 -5.41 -3.15 -16.43 -9.58 -6.4 26.61 -10.51 -36.83 0.27c-1.87,-12.45 -26.83,-44.88 -35.15,-59.8 -16.65,-29.85 -4.73,-44.26 -56.2,-46.15 29.73,-4.13 37.13,1.27 21.73,-28.51 -110.57,34.47 -164.05,8.04 -278.49,-7.79 -95.53,-13.22 -188.93,-28.01 -285.44,-42.8 -109.94,-16.84 -153.94,16.37 -253.49,45.66 -51.01,15 -206.6,69.87 -247.8,74.76z"/>
   <path class="fil10" d="M3516.27 15258.2l-256.31 56.49c15.4,29.78 8,24.38 -21.73,28.51 51.47,1.89 39.55,16.3 56.2,46.15 8.32,14.92 33.28,47.35 35.15,59.8l36.83 -0.27 -26.61 10.51 9.58 6.4c23.08,3.07 2.89,1.66 17.89,-3.09l12.2 -3.88c19.32,-6.61 4.95,-8.37 32.65,-7.26 10.39,0.41 3.35,1.87 13.11,-0.63 33.54,-8.59 17.96,-4.78 64.78,-4.81 0.4,0.82 1.05,1.28 1.19,2.45l2.99 6.39 831.26 -150.86 39.66 -85.25c-16.47,12.87 3.02,12.04 -23.13,11.92 -10.01,-16.24 1.83,-36.82 -4.81,-58.44 -3.4,-11.06 -9.21,-48.46 -9.15,-60.6l16.88 -6.27c-17.38,-5.17 -17.13,-1.57 -25.83,-14.37 -95.44,-15.96 -117.85,7.99 -202.71,26.9l-400.36 93.17c-21.97,7.69 -177.2,43.87 -199.73,47.04z"/>
   <path class="fil11" d="M2569.71 15238.76c-8.96,-8.54 -12.52,-22.42 -14.05,-33.38l28.87 -0.8c-1.9,7.2 -4.12,15.74 -6.44,22.07 -5.06,13.79 -3.27,8.17 -8.38,12.11zm-161.13 -107.96c0.82,0.7 2.11,1.81 2.46,2.13 0.34,0.34 1.98,3.09 2.31,2.39 0.33,-0.74 1.19,1.94 1.85,2.54l-20.16 40.76 -17.45 -45.82 -3.78 -1.98c-20.32,-2.7 -26.17,3.66 -27.37,-12.52 -6.86,4.8 -6.76,-8.96 -4.78,12.62l-23.11 50.04 -12.54 -22.32c-32.53,46.06 -23.57,34.91 -43.09,91.51l-30.78 -49.94c-32.59,37.16 12.55,23.26 -44.06,42.64 32.41,12.31 -3.35,46.75 -12.49,75.9l19.15 65.77c41.2,-4.89 196.79,-59.76 247.8,-74.76 99.55,-29.29 143.55,-62.5 253.49,-45.66 96.51,14.79 189.91,29.58 285.44,42.8 114.44,15.83 167.92,42.26 278.49,7.79l-12.52 -59.83 -1.94 -48.51 -595.42 -0.84 -0.01 -5.22 -25.56 0.12 -22.96 -39.52 -15.71 39.98 -33.05 -0.54 -16.4 -42.71c7.13,-9.56 -4.91,-1.21 16.77,-8.87 -19.34,-3.58 -18.17,0.88 -24.75,-12.29 -5.11,-9.63 0.43,-4.71 -12.69,-5.98 -17.4,33.91 3.3,28.28 -24.65,30.36l5.88 6.09c5.62,9.27 -13.99,47.6 -19.67,55.88 -3.76,-4.28 -39.58,-83.8 -37.18,-92.41l0.99 -5.58c0.38,-0.39 1.17,-0.73 1.44,-0.93l14.5 -11.3 -31.99 -3.43c-11.66,11.13 -1.84,17.34 -16.46,21.64z"/>
   <path class="fil12" d="M2105.42 15083.01l5.62 28.36 242.59 -2.05 6.3 -6.04c3.93,3.86 4.72,4.52 7.81,7.25l71.96 -5.3c68.74,8.7 212.29,-6.67 251.15,4.06 7.9,-7.96 5.48,-6.35 10.64,-16.49l-22.02 -6.21c-0.67,-1.19 -2.49,-0.46 -3.5,-0.57l14.6 -9.3c14.82,-2.13 17.77,-3.57 23.59,-13.43 -7.31,-9.63 -54.29,-5.37 -72.11,-5.7l-232.92 -3.01c-105.86,-0.35 -209.2,-5 -314.57,-4.44l10.86 32.87z"/>
   <path class="fil11" d="M2675.24 15143.91c-5.1,16.12 -2.82,16.54 -22.61,17.28 14.92,11.55 3.33,20.14 -1.98,37.82l594.89 -16.4 1.75 -29.39 1.9 -15.4c-23.92,5.05 -293.13,-1.57 -362.04,-1.91 -54.7,-0.27 -38.31,0.51 -41.29,-10.45 -6.19,4.11 -5.47,-7.22 -5.16,9.52l-12.71 35.38 -13.21 -36.68c2.32,-12.99 1.38,-3.95 -3.5,-7.29 -2.52,14.09 2.95,5.82 -12.17,8.49l-115.32 -7.44 -8.55 16.47z"/>
   <path class="fil5" d="M4514.01 15116.82l15.21 63.26 15.27 -2.61 0.5 -5.59c86.83,0.37 176.57,-5.5 263.17,-7.26 89.75,-1.82 174.67,7.05 262.03,9.73l-23.04 -55.3 -3.82 0 -529.32 -2.23z"/>
   <path class="fil11" d="M1618.04 15181.57c-4.36,8 -2.92,4.92 -4.79,7.51l-29.56 -68.43 55.19 0.54c-0.35,18.27 -5.61,18.29 -6.41,19.45 -8.27,11.99 -0.23,14.86 -14.43,40.93zm-177.71 42.84l14.23 35.49c43.81,15.53 216.77,43.46 255.23,28.85l-0.06 -3.78 -44.69 0.52 16.36 -55.45c6.29,-28.6 -25.82,-67.05 -29.76,-95.21l17.21 -6.93 -21.36 -4.92 67.17 -0.76 -131.31 -7.32 1.77 -15.12c-24.52,7.15 11.69,11.8 -31.62,16.33 -44.65,4.67 -121.38,-4.47 -149.82,4.55l162.5 -0.04 -29.69 71.48 -15.05 -22.62c-11.65,5.15 -1.05,8.42 -15.57,25.03 -19.24,22.03 -2.27,34.55 -32.08,63.62l-26.85 -46.02 -6.61 12.3z"/>
   <path class="fil1" d="M4595.3 15004.75l-117.75 32.08 -3.97 28.4 2.06 -5.76 30.56 36.8 250.83 -7.13c-10.22,-33.66 -31.1,-49.1 -28.11,-77.48 1.68,-15.88 10.08,12.45 -0.67,-4.47 -0.45,-0.71 -16.21,-10.04 -33.47,-48.4l-65.96 0.14 -33.52 45.82z"/>
   <path class="fil5" d="M4291.64 15023.23l121.4 7.55c8.69,0.37 32.22,0.95 40.37,6.95l10.81 -23.58 13.33 22.68 117.75 -32.08 -18.87 -46.84 -333.35 0.6 48.56 64.72z"/>
   <path class="fil12" d="M2175.59 15318.75c9.14,-29.15 44.9,-63.59 12.49,-75.9 56.61,-19.38 11.47,-5.48 44.06,-42.64l30.78 49.94c19.52,-56.6 10.56,-45.45 43.09,-91.51l12.54 22.32 23.11 -50.04 -223.66 -3.05 57.59 190.88z"/>
   <path class="fil1" d="M4846.25 15087.66l187.88 7.14c4.01,-8.2 -0.47,-0.29 14.73,-11.55 -44.27,-5.39 -64.71,-90.72 -81.05,-123.99l-55.16 -1.36 -30.12 21.75c-30.04,29.42 41.88,-30.18 -11.73,53.02 -10.35,16.06 -15.37,27.81 -24.55,54.99z"/>
   <path class="fil1" d="M5230.27 15096.95c16.72,0.1 36.5,1.01 56.11,1.92 9.98,0.47 18.31,0.84 28.62,1.11 14.46,0.38 17.01,-1.39 21.75,3.25l41.63 -125.13c-11.67,-25.71 -57.82,-25.66 -91.99,-14.19 -5.53,2.15 14.29,49.81 -52.24,64.32l-4.55 10.32 27.19 1.6 -26.52 56.8z"/>
   <polygon class="fil6" points="4506.2,15096.27 4514.01,15116.82 5043.33,15119.05 5038.19,15107.21 5068.58,15097.04 5034.13,15094.8 4846.25,15087.66 4837.7,15089.55 4762.49,15090.66 4757.03,15089.14 "/>
   <path class="fil11" d="M2868.5 15062.57c-1.5,16.41 -12.92,28.38 -12.8,43.38l297.84 9.71c-2.44,-19.67 -17.7,-34.22 -16.51,-52.31l-264.08 -0.08 -4.45 -0.7z"/>
   <path class="fil5" d="M4612.15 15197.92l121.8 40.99 5.5 3.8 325.92 -46.49 0 -4.36 -450.11 -2.22c-4.24,4.42 -14.11,-7.13 -3.11,8.28z"/>
   <path class="fil6" d="M4544.99 15171.88c3.9,2.94 0.73,2 7.55,5.02 4.13,1.84 3.32,1.16 8.19,2.7 9.73,3.07 11.3,3.07 18.44,7.27l32.98 11.05c-11,-15.41 -1.13,-3.86 3.11,-8.28l450.11 2.22 13.6 0.15 -5.54 -17.98 -3.24 0.32c-87.36,-2.68 -172.28,-11.55 -262.03,-9.73 -86.6,1.76 -176.34,7.63 -263.17,7.26z"/>
   <path class="fil1" d="M2845.86 15125.46c2.98,10.96 -13.41,10.18 41.29,10.45 68.91,0.34 338.12,6.96 362.04,1.91l-1.9 15.4 9.83 -35.3c-18.22,6.6 -61.45,-5.59 -88.34,1.77 -15.16,-1.4 -6.04,1.67 -15.24,-4.03l-297.84 -9.71 -10.85 14.54c-0.13,0.64 0.6,3.93 1.01,4.97z"/>
   <path class="fil13" d="M3259.96 15314.69l256.31 -56.49c-11.37,-12.22 3.33,-1.19 -10.49,-5.35l-23.72 -1.07c-54.48,1.67 -200.77,-6.76 -234.62,3.08l12.52 59.83z"/>
   <path class="fil14" d="M2094.56 15050.14c105.37,-0.56 208.71,4.09 314.57,4.44l232.92 3.01c17.82,0.33 64.8,-3.93 72.11,5.7l4.33 -2.71 2.05 -16.16c13.67,-5.24 9.72,-2.43 22.37,-2.59 12.09,-0.17 23.97,-0.38 35.76,-0.69l-13.9 -35.82c-70.73,3.02 -35.5,9.68 -35.49,9.77 2.26,11.01 -3.85,-6.18 -5.82,28.83 -82.91,-7.11 -420.77,0.36 -555.62,-0.86l-60.47 -0.09c-13.47,2.58 -9.55,-4.12 -12.81,7.17z"/>
   <polygon class="fil1" points="2650.65,15199.01 2650.07,15200.29 2650.08,15205.51 3245.5,15206.35 3245.54,15182.61 "/>
   <path class="fil12" d="M2650.07 15200.29l0.58 -1.28c5.31,-17.68 16.9,-26.27 1.98,-37.82 19.79,-0.74 17.51,-1.16 22.61,-17.28l-9.07 -11.79c-19.2,2.5 -47.97,0.45 -68.33,0.1l-63.04 1.57c-0.89,0.23 -2.61,2.07 -3.23,1.28 -0.63,-0.8 -2.25,0.76 -3.16,1.39 6.58,13.17 5.41,8.71 24.75,12.29 -21.68,7.66 -9.64,-0.69 -16.77,8.87l16.4 42.71 33.05 0.54 15.71 -39.98 22.96 39.52 25.56 -0.12z"/>
   <path class="fil14" d="M2367.74 15110.53l6.07 20.29 3.78 1.98c4.48,-6.32 19.54,-3.28 30.99,-2 14.62,-4.3 4.8,-10.51 16.46,-21.64l31.99 3.43 -14.5 11.3c-0.27,0.2 -1.06,0.54 -1.44,0.93l-0.99 5.58 75.62 0.08c13.12,1.27 7.58,-3.65 12.69,5.98 0.91,-0.63 2.53,-2.19 3.16,-1.39 0.62,0.79 2.34,-1.05 3.23,-1.28l63.04 -1.57c20.36,0.35 49.13,2.4 68.33,-0.1l9.07 11.79 8.55 -16.47 7.06 -18.15c-38.86,-10.73 -182.41,4.64 -251.15,-4.06l-71.96 5.3z"/>
   <path class="fil12" d="M5070.19 15174.35l3.24 -0.32 59.02 1.86 6.63 -7.97 -17.18 -9.11 20.84 -2.65c6.96,-9.86 7.16,-17.65 16.32,-26.16l21.35 47.48 -11.6 6.72 36.88 -6.97c-26.5,3.64 -5.96,1.44 -12.78,-3.22l23.16 -46.57 -7.43 -5.16c-21.34,-2.66 -148.47,-8.73 -161.49,-3.23l23.04 55.3z"/>
   <path class="fil0" d="M300.96 14640.88c6.6,14.49 17.54,69.74 15.18,87.65l-68.24 1.25c12.99,9.37 31.98,12.59 48.41,16.66 51.83,12.82 19.92,16.29 43,19.51 7.39,-14.16 18.61,-46.98 24.79,-63.04l27.24 -68.09c-6.55,6.2 33.17,-90.69 50.07,-130.71 -1.71,-4.01 -9.34,-21.02 -16.25,-35.3 -13.2,10.99 -52.15,80.92 -64.66,100.33 -5.71,-1.96 -37.66,-23.25 -69.36,-34.1 -2.2,3.98 -6.6,20.31 -7.85,23.34 5.22,24.42 17,79.36 17.67,82.5z"/>
   <path class="fil9" d="M4365.11 15218.85l29.52 -57.47 41.18 -5.41 -31.09 -10.04 -0.54 -12.96c-1.15,-12.19 -10.23,-11.24 -24.69,-15.67 -14.89,-4.56 -19.76,-8.62 -34.59,-11.84l-16.88 6.27c-0.06,12.14 5.75,49.54 9.15,60.6 6.64,21.62 -5.2,42.2 4.81,58.44 26.15,0.12 6.66,0.95 23.13,-11.92z"/>
   <path class="fil5" d="M5205.69 15177.23l113.06 -14.41 13.24 -38.01c-17.69,-5.84 -98.44,-6.49 -123.35,-2.53l7.43 5.16 -23.16 46.57c6.82,4.66 -13.72,6.86 12.78,3.22z"/>
   <path class="fil1" d="M4302.91 15046.27c3.28,-7.21 60.08,-7.87 71.22,-8.45 18.28,-0.95 58.11,-6.14 68.61,1.79 -19.98,16.09 -101.1,21.83 -117.11,34.74l-11.85 -5.53c-0.69,-1.38 -2.1,-1.22 -3.03,-1.95l7.35 20.51c6.02,5.29 8.64,6.61 27.66,6.7 11.08,0.06 21.77,-0.96 32.84,-1.33 27.38,-0.9 34.53,2.79 49.2,-3.47l25.61 -51.55c-8.15,-6 -31.68,-6.58 -40.37,-6.95l-121.4 -7.55 11.27 23.04z"/>
   <path class="fil1" d="M2872.95 15063.27l264.08 0.08 1.13 -7.56c-0.38,-7.04 -6.77,-8.32 -14.5,-11.56 -30.3,-0.13 -40.79,3.08 -72.87,-1.4l-9.69 3.36c-17.09,-4.06 -12.77,-4.16 -30.19,-0.64l-9.2 -3.95c-36.15,10.6 -90.37,1.86 -126.73,1.45 -6.01,6.23 2.88,3.31 -14.12,5.41l12.09 14.81z"/>
   <path class="fil9" d="M4557.78 15206.15l16.96 34.05c13.43,-6.48 55.68,-0.31 72.56,0.55l86.65 -1.84 -121.8 -40.99 -32.98 -11.05c-5.84,2.64 -6.96,-0.44 -19.94,2.12l-1.45 17.16z"/>
   <path class="fil14" d="M5034.13 15094.8l34.45 2.24 -30.39 10.17 5.14 11.84 3.82 0c13.02,-5.5 140.15,0.57 161.49,3.23l5.42 -3.02c13.04,-9.13 7.22,-7.07 14.98,-16.9 -0.67,-0.62 -1.68,-2.45 -1.99,-1.87l-8.13 -6.01c-22.25,-1.25 -142.35,0.09 -170.06,-11.23 -15.2,11.26 -10.72,3.35 -14.73,11.55z"/>
   <path class="fil5" d="M2874.98 15043.05c36.36,0.41 90.58,9.15 126.73,-1.45l-13.13 -41.52 -46.66 0.36c-3.33,3.65 -3.61,4.12 -6.5,8.4 -4.41,-6.1 7.03,-10.77 -40.19,-5.36 -7.42,12.71 -8.59,30.83 -20.25,39.57z"/>
   <path class="fil11" d="M2714.16 15063.29c-5.82,9.86 -8.77,11.3 -23.59,13.43l-14.6 9.3c1.01,0.11 2.83,-0.62 3.5,0.57l22.02 6.21c-5.16,10.14 -2.74,8.53 -10.64,16.49 28.15,-7.42 86.87,-2.05 111,-5.56 -7.15,-19.49 -16.03,-19.76 4.26,-22.44 -1.06,-0.8 -2.67,-1.52 -3.56,-2.05l-10.06 -7.53c0,-0.01 -0.4,-4.76 -6.68,-7.7l-2.94 -4.8 -64.38 1.37 -4.33 2.71z"/>
   <path class="fil14" d="M2111.04 15111.37l6.96 16.5 223.66 3.05c-1.98,-21.58 -2.08,-7.82 4.78,-12.62l7.19 -8.98 -242.59 2.05z"/>
   <path class="fil11" d="M3212.46 15071.54l-13.4 31.95 -11.21 -28.56c-21.69,27.24 -4.45,15.5 -19.07,44.76 26.89,-7.36 70.12,4.83 88.34,-1.77l16.74 -52.1 -55.09 1.66 0.44 -14.75 -6.75 18.81z"/>
   <path class="fil12" d="M2515.72 15130.48l-75.62 -0.08c-2.4,8.61 33.42,88.13 37.18,92.41 5.68,-8.28 25.29,-46.61 19.67,-55.88l-5.88 -6.09c27.95,-2.08 7.25,3.55 24.65,-30.36z"/>
   <path class="fil12" d="M1681.4 15230.04l33.26 -107.82 -67.17 0.76 21.36 4.92 -17.21 6.93c3.94,28.16 36.05,66.61 29.76,95.21z"/>
   <path class="fil1" d="M2690.85 15109.29l-7.06 18.15 115.32 7.44c15.12,-2.67 9.65,5.6 12.17,-8.49l-7.03 -21.12 -2.4 -1.54c-24.13,3.51 -82.85,-1.86 -111,5.56z"/>
   <path class="fil5" d="M3230.06 15036.31l-1.67 5.42c13.29,3.49 14.44,3.38 28.76,3.55 3.58,0.04 8.78,-0.29 11.61,-0.25 10.58,0.15 5.17,-0.85 12.78,0.96l17.73 -21.35c-12.37,-18.77 -7.21,-24.6 -18.24,-36.13l-36.12 1.72c-3.56,22.66 -4.59,21.86 -22.86,30.88 9.38,12.18 6.1,-6.33 8.01,15.2z"/>
   <path class="fil1" d="M4762.49 15090.66l75.21 -1.11 -33.7 -72.93c2.39,-2.2 1.57,-1.71 6.67,-4.55 3.58,-1.99 6.04,-2.67 9.82,-4.64 -20.22,-1.7 -20.2,1.64 -38.3,40.06 -2.05,4.33 -1.03,2.41 -2.84,7.71 -1.97,5.79 -1.98,7.08 -4.52,13.1 -3.48,8.26 -6.73,15.16 -12.34,22.36z"/>
   <path class="fil2" d="M3349.38 15465.79l3.15 16.43 -26.42 5.41 8.5 1.62c21.65,-1.67 58.68,-10.47 80.69,-15.2 24.14,-5.2 61.48,-8.92 78.89,-19.09l-2.99 -6.39c-0.14,-1.17 -0.79,-1.63 -1.19,-2.45 -46.82,0.03 -31.24,-3.78 -64.78,4.81 -9.76,2.5 -2.72,1.04 -13.11,0.63 -27.7,-1.11 -13.33,0.65 -32.65,7.26l-12.2 3.88c-15,4.75 5.19,6.16 -17.89,3.09z"/>
   <path class="fil12" d="M2801.85 15103.73l2.4 1.54 51.45 0.68c-0.12,-15 11.3,-26.97 12.8,-43.38l-1.4 -1.64c-14.89,-0.88 -29.39,-0.14 -44.24,-0.97 -42.39,-2.38 -31.6,-3.1 -37.05,4.05 6.28,2.94 6.68,7.69 6.68,7.7l10.06 7.53c0.89,0.53 2.5,1.25 3.56,2.05 -20.29,2.68 -11.41,2.95 -4.26,22.44z"/>
   <path class="fil5" d="M4302.91 15046.27l7.84 20.6c0.93,0.73 2.34,0.57 3.03,1.95l11.85 5.53c16.01,-12.91 97.13,-18.65 117.11,-34.74 -10.5,-7.93 -50.33,-2.74 -68.61,-1.79 -11.14,0.58 -67.94,1.24 -71.22,8.45z"/>
   <path class="fil5" d="M3050.79 15042.83c32.08,4.48 42.57,1.27 72.87,1.4l-0.68 -4.91c-1.02,-9.61 -3.63,-13.54 -7.01,-22.41l-11.76 -21.57 -37.54 0.69 -15.88 46.8z"/>
   <path class="fil6" d="M5208.64 15122.28c24.91,-3.96 105.66,-3.31 123.35,2.53l4.76 -21.58c-4.74,-4.64 -7.29,-2.87 -21.75,-3.25 -10.31,-0.27 -18.64,-0.64 -28.62,-1.11 -19.61,-0.91 -39.39,-1.82 -56.11,-1.92l-11.35 -2.47 8.13 6.01c0.31,-0.58 1.32,1.25 1.99,1.87 -7.76,9.83 -1.94,7.77 -14.98,16.9l-5.42 3.02z"/>
   <path class="fil12" d="M3153.54 15115.66c9.2,5.7 0.08,2.63 15.24,4.03 14.62,-29.26 -2.62,-17.52 19.07,-44.76l11.21 28.56 13.4 -31.95c-1.86,-2.57 1.01,-5.96 -19.49,-7.73l-55.94 -0.46c-1.19,18.09 14.07,32.64 16.51,52.31z"/>
   <path class="fil2" d="M4739.45 15242.71l-5.5 -3.8 -86.65 1.84c-16.88,-0.86 -59.13,-7.03 -72.56,-0.55l11 24.79 153.71 -22.28z"/>
   <path class="fil6" d="M4344.9 15105.46c14.83,3.22 19.7,7.28 34.59,11.84 14.46,4.43 23.54,3.48 24.69,15.67 9.48,-6.71 20.28,-30.96 23.62,-43.69 -14.67,6.26 -21.82,2.57 -49.2,3.47 -11.07,0.37 -21.76,1.39 -32.84,1.33 -19.02,-0.09 -21.64,-1.41 -27.66,-6.7l0.97 3.71c8.7,12.8 8.45,9.2 25.83,14.37z"/>
   <path class="fil12" d="M1613.25 15189.08c1.87,-2.59 0.43,0.49 4.79,-7.51 14.2,-26.07 6.16,-28.94 14.43,-40.93 0.8,-1.16 6.06,-1.18 6.41,-19.45l-55.19 -0.54 29.56 68.43z"/>
   <path class="fil14" d="M3122.98 15039.32l0.68 4.91c7.73,3.24 14.12,4.52 14.5,11.56l-1.13 7.56 55.94 0.46c20.5,1.77 17.63,5.16 19.49,7.73l6.75 -18.81c4.66,-5.38 3.15,-4.97 9.18,-11l1.67 -5.42c-17.7,14.1 -100.16,5.89 -107.08,3.01z"/>
   <path class="fil5" d="M5132.45 15175.89c-5.94,4.36 -9.24,6.44 -1.34,9.92l37.7 -1.61 11.6 -6.72 -21.35 -47.48c-9.16,8.51 -9.36,16.3 -16.32,26.16l-20.84 2.65 17.18 9.11 -6.63 7.97z"/>
   <path class="fil0" d="M536.33 14365.99l138.26 -15.78 -60.62 -17.98c-1.78,9.55 -37.89,17.15 -59.22,24.34l-18.42 9.42z"/>
   <path class="fil14" d="M2782.87 15059.21l2.94 4.8c5.45,-7.15 -5.34,-6.43 37.05,-4.05 14.85,0.83 29.35,0.09 44.24,0.97l1.4 1.64 4.45 0.7 -12.09 -14.81c17,-2.1 8.11,0.82 14.12,-5.41 -30.26,-2.33 -67.14,0.46 -99.61,0.21l7.5 15.95z"/>
   <path class="fil1" d="M3219.21 15052.73l-0.44 14.75 55.09 -1.66 7.68 -19.83c-7.61,-1.81 -2.2,-0.81 -12.78,-0.96 -2.83,-0.04 -8.03,0.29 -11.61,0.25 -14.32,-0.17 -15.47,-0.06 -28.76,-3.55 -6.03,6.03 -4.52,5.62 -9.18,11z"/>
   <path class="fil1" d="M2718.49 15060.58l64.38 -1.37 -7.5 -15.95 3.3 -2.12c-11.79,0.31 -23.67,0.52 -35.76,0.69 -12.65,0.16 -8.7,-2.65 -22.37,2.59l-2.05 16.16z"/>
   <path class="fil14" d="M2804.25 15105.27l7.03 21.12c4.88,3.34 5.82,-5.7 3.5,7.29l25.92 1.3c-0.31,-16.74 -1.03,-5.41 5.16,-9.52 -0.41,-1.04 -1.14,-4.33 -1.01,-4.97l10.85 -14.54 -51.45 -0.68z"/>
   <path class="fil12" d="M2408.58 15130.8c-11.45,-1.28 -26.51,-4.32 -30.99,2l17.45 45.82 20.16 -40.76c-0.66,-0.6 -1.52,-3.28 -1.85,-2.54 -0.33,0.7 -1.97,-2.05 -2.31,-2.39 -0.35,-0.32 -1.64,-1.43 -2.46,-2.13z"/>
   <path class="fil14" d="M5065.37 15191.86l0 4.36c14.94,-1.41 55.22,-3.99 65.74,-10.41 -7.9,-3.48 -4.6,-5.56 1.34,-9.92l-59.02 -1.86 5.54 17.98 -13.6 -0.15z"/>
   <path class="fil15" d="M341.81 14777.35c-17.87,-7.65 -41.36,-3.85 -61.21,-1.66 0.66,3.52 -9.35,11.6 28.45,13.93 4.8,0.3 16.17,0.25 20.83,-0.58 17.2,-3.05 11.39,-1.02 11.93,-11.69z"/>
   <path class="fil12" d="M2569.71 15238.76c5.11,-3.94 3.32,1.68 8.38,-12.11 2.32,-6.33 4.54,-14.87 6.44,-22.07l-28.87 0.8c1.53,10.96 5.09,24.84 14.05,33.38z"/>
   <path class="fil5" d="M3010.91 15045.55c17.42,-3.52 13.1,-3.42 30.19,0.64 -4.42,-8.31 -9.12,-21.03 -11.16,-31.91 -9.06,5.6 -2.8,0.95 -8.48,6.53 -10.55,10.38 -4.37,14.17 -10.55,24.74z"/>
   <path class="fil1" d="M2353.63 15109.32l-7.19 8.98c1.2,16.18 7.05,9.82 27.37,12.52l-6.07 -20.29c-3.09,-2.73 -3.88,-3.39 -7.81,-7.25l-6.3 6.04z"/>
   <polygon class="fil12" points="2840.7,15134.98 2814.78,15133.68 2827.99,15170.36 "/>
   <path class="fil8" d="M4529.22 15180.08l18.07 3.14c-3.71,12.41 12.44,5.3 -11.89,8.77 16.51,3.55 15.12,1.99 22.38,14.16l1.45 -17.16c12.98,-2.56 14.1,0.52 19.94,-2.12 -7.14,-4.2 -8.71,-4.2 -18.44,-7.27 -4.87,-1.54 -4.06,-0.86 -8.19,-2.7 -6.82,-3.02 -3.65,-2.08 -7.55,-5.02l-0.5 5.59 -15.27 2.61z"/>
   <path class="fil0" d="M8266.27 14958.26l-1145.53 34.07c-3.51,-8.54 -78.73,-32.76 -81.08,-44.1 -3.72,-17.91 62.46,-42.81 59.5,-58.78 26.7,5.44 1161.05,-5.65 1190.05,-6.94l-22.94 75.75z"/>
   <path class="fil1" d="M7075.46 14969.71l1190.81 -11.45c-3.86,20.36 -1.58,4.56 3.8,10.69l95.51 -1.58c-24.57,11.62 -77.17,19.66 -99.27,26.29 -12.06,3.62 -14.18,-0.64 -18.12,26.74l81.29 -7.08c-38.96,132.73 -1168.19,67.73 -1182.07,90.1l-71.95 -133.71z"/>
   <path class="fil5" d="M8327.2 15026.84l-31.24 63.26 -31.37 -2.61 -1.02 -5.59c-178.33,0.37 -362.63,-5.5 -540.49,-7.26 -184.34,-1.82 -358.75,7.05 -538.16,9.73l47.34 -55.3 7.82 0 1087.12 -2.23z"/>
   <polygon class="fil6" points="8343.22,15006.29 8327.2,15026.84 7240.08,15029.07 7250.65,15017.23 7188.23,15007.06 7258.99,15004.82 7644.85,14997.68 7662.4,14999.57 7816.88,15000.68 7828.08,14999.16 "/>
   <path class="fil0" d="M11471.67 14681.64l-85.7 287.58 55.53 -0.83c-22.47,35.13 -78.38,18.9 -80.03,86.41l80.12 1.62c-27.43,10.94 -85.7,17.89 -96.39,49.39 -11.5,33.89 -21.35,89.7 -37.51,118.6l0.71 28.54 -5.18 16.68c-89.57,60.32 -324.09,181.53 -188.11,-31.43 -43.98,-0.88 0.13,26.91 -94.09,-2.58l-72.45 -222.48 -33.43 -40.39 41.99 -17.54 -77.22 -349.05c-19.98,5.26 -2.12,15.28 -16.68,50.3 -7.89,18.96 -18.45,44.67 2.87,57.42 -23.25,7.97 -16.69,-0.47 -22.35,33.57l27.31 39.78c-14.29,66.98 -30.02,128.68 -45.4,195.84l33.4 1.18c-8.27,7.38 -29.36,13.8 -35.1,18.92 -22.96,20.51 5.75,22.35 11.07,26.28 -40.11,5.36 -16.22,28.83 -36.03,53.57l8.31 -32.88c-2.49,-11.29 0.51,-4.59 -9.8,-7.17l-46.25 0.09c-103.14,1.21 -361.54,-6.25 -424.96,0.86 -1.5,-35.01 -6.18,-17.82 -4.45,-28.83 0.01,-0.09 26.95,-6.75 -27.14,-9.77l-10.63 35.82 2.53 2.12c-24.85,0.25 -53.05,-2.54 -76.2,-0.21 -8.91,-8.74 -9.81,-26.86 -15.49,-39.57 -36.11,-5.41 -27.36,-0.74 -30.73,5.36 -2.21,-4.29 -2.42,-4.75 -4.98,-8.4l-35.69 -0.36 -10.04 41.52 -7.03 3.95c-4.73,-10.57 0,-14.36 -8.07,-24.73 -4.34,-5.59 0.45,-0.94 -6.48,-6.54 -1.57,10.87 -5.16,23.59 -8.54,31.91l-7.41 -3.36 -12.15 -46.8 -28.71 -0.69 -8.99 21.58c-2.59,8.86 -4.58,12.79 -5.37,22.4 -5.29,2.88 -68.36,11.09 -81.89,-3.01 1.45,-21.52 -1.05,-3.02 6.12,-15.2 -13.97,-9.02 -14.76,-8.22 -17.48,-30.88l-27.63 -1.71c-8.43,11.52 -4.49,17.35 -13.95,36.12l-3.37 14.32 -14.75 -48.66 -14.88 39.84 -14.8 -43.38 -3.29 0.61 -14.39 55.31 -19.11 -58.58 -637.28 -25.58 -254.96 -0.61 -14.42 46.85 -25.64 -45.83 -50.45 -0.14c-13.2,38.36 -25.26,47.69 -25.6,48.4 -8.22,16.92 -1.8,-11.41 -0.51,4.47 2.28,28.37 -13.68,43.82 -21.5,77.48l-4.17 1.52c-4.29,-7.2 -6.78,-14.1 -9.44,-22.36 -1.95,-6.02 -1.96,-7.31 -3.47,-13.1 -1.38,-5.31 -0.6,-3.38 -2.16,-7.71 -13.85,-38.42 -13.83,-41.76 -29.3,-40.06 2.89,1.97 4.77,2.65 7.51,4.64 3.9,2.83 3.27,2.34 5.1,4.55l-25.78 72.93 -6.53 -1.89c-7.03,-27.18 -10.86,-38.93 -18.78,-54.99 -40.99,-83.2 14,-23.6 -8.97,-53.02l-23.03 -21.75 -42.19 1.36c-12.5,33.28 -28.13,118.6 -61.99,123.99 -21.2,11.32 -113.05,9.98 -130.07,11.23l-8.68 2.47 -20.29 -56.8 20.79 -1.6 -3.47 -10.31c-50.89,-14.53 -35.73,-62.18 -39.96,-64.33 -26.13,-11.47 -61.43,-11.52 -70.35,14.19l-35.15 -131.48 -71.48 -9.33 61.93 -26.65 -11.14 -47.76 29.01 -86.04 28.25 91.7c0.12,12.81 2.22,3.91 -10.49,13.43l15.83 2.31c-16.33,10.51 -1.14,-2.69 9.43,34.14 6.24,21.69 9.03,45.03 20.36,45.73 16.48,-2.78 5.84,6.07 12.96,-11.12 13.04,-31.46 -6.64,-23.47 23.26,-37.75 -15.58,-0.39 -8.71,2.28 -11.04,-8.78l12.91 -8.08c-15.11,-0.46 -5.86,-13.58 -1.41,-27.86 4.47,-14.3 8.64,-24.38 11.39,-39.49l29.73 -16.55c-19.07,-10.78 -26.99,9.63 -18.19,-19.91 3.1,-10.47 8.3,-27.13 11.47,-35.59 8.96,-23.78 7.42,-9.68 8.63,-26.11 1.71,-23.11 3.62,-14.21 18.43,-21.43 -16.74,-10.13 2.21,-65.14 13.02,-80.57l22.76 70.5 18.92 -40.45 5.85 3.31c-17.91,-14.66 -9.48,-18.1 -1.14,-45.14 5.04,-16.34 10.37,-34.45 14.21,-51.11l51.39 160.06 -23.67 11.39 27.8 4.41c-8.87,23.04 -10.26,-4.59 7.24,24 7.05,11.53 11.88,40.94 15.8,46.66l37.97 131.98c31.65,-1.11 23.69,1.15 31.35,-26.41 5.55,-20.02 4.48,-29.07 21.54,-34.63l-1.76 -0.75c-7.45,-6.45 -7.13,4.96 -1,-2.76 2.91,-3.66 5.26,-3.23 9.34,-4.53l-13.35 -6.65c5.11,-14.85 16.7,-44 14.49,-56.65l25.36 -70.85c6.29,18.38 10.9,37.57 16.84,57.24 2.88,9.51 8.67,22.58 9.74,30.35 3.73,27.14 -1.05,3.57 -9.24,18.47 28.07,5.56 31.33,-82.69 44.35,-106.41l25.76 87.81c3.64,33.13 -9.47,0.49 -1,19.26 6.01,13.3 23.49,39.49 31.81,84.92 47.67,-1.3 34.38,5.07 46.22,-33.48 6.08,-19.8 10.94,-39.58 19.65,-58.3l25.5 86.22 810.11 55.27 20.15 -74.07 12.26 -23.78 12.92 54.22 3.9 0.38 14.25 -42.16 12.55 37.42 3.26 0.28 14.21 -46.61 7.05 9.82c-0.07,13.8 14.12,65.59 22.8,76.47 11.44,-15.84 10.2,-40.38 26.05,-70.34l24.17 -81.36 11.12 28.43 17 -59.27c5.04,15.8 10.01,31.98 14.75,47.59 11.18,36.8 -4.38,18.39 8.34,38.41 14.65,23.07 15.94,85.4 37.86,92.79l29.09 -96.94 16.23 39.15 14.15 -38.7 11.45 39.42c0.97,4.53 0.97,2.86 2.8,9.67 13.87,51.52 14.99,-23.59 17.66,-27.49 9.51,17.43 25.71,49.96 37.26,64.38l21.37 -62.56c8.04,-12.61 3.15,-6.2 12.42,-16.23 11.73,-12.69 -8.59,1.38 8.62,-47.88 10.09,-28.89 17.31,-66.84 24.74,-75.17 5.22,18.29 12.01,38.21 17.33,56.8 10.96,38.38 -6.33,26.8 3.99,38.5 21.45,24.29 25.94,89.83 43.18,100.92 21.02,-8.24 0,-76.08 46.11,-90.05l6.72 -10.14c-31.23,-4.47 -22.17,-2.52 -8.75,-42.81 10.36,-31.11 3.17,-37.85 26.6,-49.13 -16.61,-8.21 1.96,-61.04 11.93,-73.7l25.64 75.06 23.92 -99.19c7.29,14.36 11.18,43.98 15,61.11 7.72,34.62 18.07,38.6 -2.49,55.39l6.27 -3.94 18.1 35.64c7.7,-17.57 5.98,-20.42 10.36,-33.83 9.56,-29.25 11.49,-1.78 8.82,-23.15 -1.68,-13.41 5.97,-49.65 14.63,-65.97 10.3,16.02 14.01,47.87 19.76,70.28 7.26,28.24 22.31,49.15 -0.77,57.63l18.83 19.4 22.02 -93.52c9.04,12.36 12.64,38.84 17.2,56.55 19.17,74.4 -4.12,28 2.88,47.81l7.67 2.74 33.67 -109.39 11.48 27.34c5.47,-14.84 3.01,-19.31 10.89,-31.27 8.96,-13.59 4.25,-3.41 5.02,-19.42 0.61,-12.87 12.6,-45.84 18.25,-62.31l20.25 60.36 24.92 -56.02 6.42 3.25c-18.51,-7.47 -6.22,-27.02 -0.26,-45.99 4.33,-13.79 7.93,-35.31 15.37,-45.24 7.93,13.85 21.52,68.39 27.32,88.21 11.75,40.07 30.08,57.8 -0.68,76.39l23.6 4.63 -6.59 5.45 21.04 30.38 29.47 -10.58 -30.62 1.33 33.59 -12.9 -28.87 -6.47c7.16,-28.03 16.76,-94.54 42.1,-99.66 -6.95,-6.81 -17.66,6.45 -7,-24.34 8.5,-24.51 7.76,-7.47 23.15,-16.96 -27.66,-18.42 14.41,-90.54 21.06,-123.36l73.04 255.05 25 -65.9 24.85 78.33 24.62 -97.24c7.17,9.48 12.42,44.28 15.69,58.03 5.47,23.05 16.77,42.14 -0.54,52.44l24.36 31.33 30.13 -121.03c11.54,13.83 15.73,49.62 21.12,71.47 10.36,41.89 20.23,37.8 -1.84,58.91l22 9.24 21.25 -85.52c10.33,18.81 34.09,97.98 14,102.04 24.01,6.73 39.21,-78.61 45.46,-103.92l11.15 26.3 35.32 -112.98 20.63 60.26c25.76,-68.64 24.03,-69.4 42.37,-142.25 13.52,3.87 25.78,69.06 31.18,87.5 10.46,35.72 31.2,63.47 -1.6,74.57l25.6 5.92c-12.66,23.35 -4.97,-3.84 7.82,26.69 4.42,10.56 10.48,36.34 14.62,49.94 11.87,39.02 74.28,-19.75 112.21,-23.88z"/>
   <path class="fil7" d="M12147.39 14777.35c0.42,10.67 -4.04,8.65 9.15,11.69 3.57,0.83 12.28,0.88 15.96,0.58 28.97,-2.33 21.29,-10.41 21.8,-13.93 -15.21,-2.19 -33.21,-5.99 -46.91,1.66zm-5126.73 844.13l5372.36 0 -0.4 -990.17 -12.34 -0.6c-7.44,-39.51 -1.51,-26.8 -13.75,-30.64 6.44,-14.17 6.23,-13.69 2.08,-36.12 -2.19,-11.76 -4.06,-26.8 -6.68,-39.91l71.56 -244.67 -26.11 -139.56 -108.19 252.74 57.77 35.3 -64.48 1.98 -31.43 90.37 -39.94 94.05c-5.06,14.49 -55.86,96.37 -54.05,114.28l52.31 1.25c-9.96,9.37 -24.52,12.59 -37.11,16.66 -39.72,12.82 -15.26,16.29 -32.95,19.51 -5.66,-14.16 -14.27,-46.98 -19,-63.04l-20.88 -68.09c-7.86,-44.3 -32.96,-109.57 -46.03,-156.29 -14.44,-51.56 -84.79,-51.24 -114.04,-85.06 58.02,-3.88 87.95,13.3 84.96,-13.11l-36 -14.37 -105.96 -15.78 46.46 -17.98 71.36 -25.5 -212.2 -705.79 -119.27 389.84 69.57 46.31 -84.71 2.43 -37.2 125.45 62.73 -0.99 -72.22 28.32c-5.35,36.26 29.84,2.53 51.29,15.32 -72.53,19.06 -54.81,-1.86 -97.57,140.75 -12.7,42.34 -50.64,149.05 -54.74,185.12l148.64 -2.38 -169.84 58.99 2.34 9.39 132.22 -15.54c-17.54,12.17 -67.94,26.79 -93.25,35.8 -62.79,22.38 -43.01,1.98 -66.14,61.89l-85.88 287.58 55.64 -0.83c-22.51,35.13 -78.53,18.9 -80.18,86.41l80.28 1.62c-27.5,10.94 -85.87,17.89 -96.59,49.39 -11.52,33.89 -21.39,89.7 -37.58,118.6l-10.91 35.49c-33.57,15.52 -166.12,43.46 -195.6,28.85l0.05 -3.78 34.25 0.52 -12.54 -55.45 -88.14 -1.76 -57.68 -236.34 -59.81 -19.19 51.46 -21.5 -82.65 -356.09c-20.02,5.27 -9.2,26.28 -23.79,61.3 -7.89,18.96 -18.48,44.67 2.88,57.42 -23.3,7.97 -16.72,-0.47 -22.39,33.57l-71.02 254.47c-737.71,-13.51 -2193.59,-167.83 -2493.5,-66.26l-23.85 -89.04 -71.62 -9.33 62.06 -26.65 -11.16 -47.76 -77.71 -319.85 -28.6 -103.03 -21.13 77.94 -25.23 96.67 36.6 24.57 -43.59 2.76 -18 68.3 -69.29 272.27 -17.59 75.75c-2.95,20.36 -1.21,4.56 2.92,10.69l73.19 -1.58c-18.82,11.62 -59.14,19.66 -76.08,26.29 -9.24,3.62 -10.87,-0.64 -13.88,26.74l62.3 -7.08c-39.03,19.55 -61.42,13.56 -72.06,35.93 -605.92,32.28 -760.21,37.17 -762.47,22.92 -15.47,-97.55 4.22,-101.7 -79.22,-126.79l56.91 -2.4c-5.35,-73.05 -26.73,-38.71 -61.84,-74.39l49.43 1.19 -12.2 -81.22 -17 -90.49 -33.71 -11.58 31.02 -2.53 -28.7 -57.25 -6.77 2.86 26.09 -1.12 -39.77 -234.72 -44.52 198.85 0 1028.9z"/>
   <path class="fil0" d="M18981.38 14961.55l1835.25 34.07c5.62,-8.54 126.14,-32.76 129.9,-44.1 5.95,-17.91 -100.07,-42.81 -95.33,-58.78 -42.77,5.44 -1860.1,-5.65 -1906.57,-6.94l36.75 75.75z"/>
   <path class="fil1" d="M20889.17 14973l-1907.79 -11.45c6.18,20.36 2.53,4.56 -6.08,10.69l-153.02 -1.58c39.36,11.62 123.64,19.66 159.04,26.29 19.32,3.62 22.73,-0.64 29.04,26.74l-130.24 -7.08c62.41,132.73 1871.56,67.73 1893.78,90.1l115.27 -133.71z"/>
   <path class="fil5" d="M18883.78 15030.13l50.05 63.26 50.25 -2.61 1.64 -5.59c285.69,0.37 580.96,-5.5 865.91,-7.26 295.33,-1.82 574.74,7.05 862.18,9.73l-75.84 -55.3 -12.54 0 -1741.65 -2.23z"/>
   <polygon class="fil6" points="18858.11,15009.58 18883.78,15030.13 20625.43,15032.36 20608.5,15020.52 20708.51,15010.35 20595.14,15008.11 19976.97,15000.97 19948.85,15002.86 19701.36,15003.97 19683.4,15002.45 "/>
   <path class="fil0" d="M13846.04 14684.93l137.3 287.58 -88.96 -0.83c35.99,35.13 125.57,18.9 128.2,86.41l-128.35 1.62c43.95,10.94 137.3,17.89 154.43,49.39 18.42,33.89 34.2,89.7 60.09,118.6l-1.14 28.54 8.29 16.68c143.51,60.32 519.23,181.53 301.37,-31.43 70.46,-0.88 -0.2,26.91 150.75,-2.58l116.08 -222.48 53.55 -40.39 -67.28 -17.54 123.73 -349.05c32.01,5.26 3.39,15.28 26.72,50.3 12.64,18.96 29.56,44.67 -4.6,57.42 37.25,7.97 26.73,-0.47 35.8,33.57l-43.75 39.78c22.9,66.98 48.09,128.68 72.74,195.84l-53.51 1.18c13.25,7.38 47.04,13.8 56.23,18.92 36.78,20.51 -9.21,22.35 -17.73,26.28 64.25,5.36 25.98,28.83 57.71,53.57l-13.3 -32.88c3.99,-11.29 -0.82,-4.59 15.7,-7.17l74.09 0.09c165.24,1.21 579.23,-6.25 680.82,0.86 2.41,-35.01 9.9,-17.82 7.13,-28.83 -0.01,-0.09 -43.18,-6.75 43.49,-9.77l17.03 35.82 -4.05 2.12c39.8,0.25 84.98,-2.54 122.07,-0.21 14.28,-8.74 15.71,-26.86 24.81,-39.57 57.86,-5.41 43.84,-0.74 49.24,5.36 3.55,-4.29 3.88,-4.75 7.98,-8.4l57.17 -0.36 16.09 41.52 11.26 3.95c7.59,-10.57 0.01,-14.36 12.94,-24.73 6.95,-5.59 -0.72,-0.94 10.38,-6.54 2.52,10.87 8.27,23.59 13.68,31.91l11.87 -3.36 19.47 -46.8 45.99 -0.69 14.41 21.58c4.15,8.86 7.34,12.79 8.59,22.4 8.49,2.88 109.52,11.09 131.21,-3.01 -2.33,-21.52 1.68,-3.02 -9.81,-15.2 22.38,-9.02 23.65,-8.22 28.01,-30.88l44.26 -1.71c13.51,11.52 7.19,17.35 22.35,36.12l5.41 14.32 23.62 -48.66 23.84 39.84 23.71 -43.38 5.27 0.61 23.06 55.31 30.61 -58.58 1020.98 -25.58 408.47 -0.61 23.11 46.85 41.07 -45.83 80.83 -0.14c21.15,38.36 40.46,47.69 41.01,48.4 13.17,16.92 2.88,-11.41 0.82,4.47 -3.66,28.37 21.91,43.82 34.44,77.48l6.69 1.52c6.87,-7.2 10.85,-14.1 15.12,-22.36 3.12,-6.02 3.14,-7.31 5.55,-13.1 2.21,-5.31 0.97,-3.38 3.47,-7.71 22.19,-38.42 22.16,-41.76 46.94,-40.06 -4.64,1.97 -7.65,2.65 -12.03,4.64 -6.25,2.83 -5.24,2.34 -8.18,4.55l41.31 72.93 10.46 -1.89c11.26,-27.18 17.4,-38.93 30.09,-54.99 65.67,-83.2 -22.44,-23.6 14.37,-53.02l36.9 -21.75 67.59 1.36c20.03,33.28 45.07,118.6 99.31,123.99 33.96,11.32 181.12,9.98 208.38,11.23l13.92 2.47 32.5 -56.8 -33.32 -1.6 5.57 -10.31c81.53,-14.53 57.24,-62.18 64.01,-64.33 41.87,-11.47 98.43,-11.52 112.72,14.19l56.31 -131.48 114.52 -9.33 -99.22 -26.65 17.84 -47.76 -46.47 -86.04 -45.26 91.7c-0.19,12.81 -3.56,3.91 16.81,13.43l-25.36 2.31c26.16,10.51 1.83,-2.69 -15.12,34.14 -9.99,21.69 -14.47,45.03 -32.61,45.73 -26.4,-2.78 -9.36,6.07 -20.77,-11.12 -20.89,-31.46 10.65,-23.47 -37.26,-37.75 24.96,-0.39 13.96,2.28 17.68,-8.78l-20.68 -8.08c24.21,-0.46 9.39,-13.58 2.26,-27.86 -7.15,-14.3 -13.84,-24.38 -18.24,-39.49l-47.63 -16.55c30.55,-10.78 43.23,9.63 29.14,-19.91 -4.97,-10.47 -13.3,-27.13 -18.38,-35.59 -14.36,-23.78 -11.88,-9.68 -13.82,-26.11 -2.75,-23.11 -5.8,-14.21 -29.52,-21.43 26.81,-10.13 -3.55,-65.14 -20.88,-80.57l-36.45 70.5 -30.32 -40.45 -9.37 3.31c28.7,-14.66 15.19,-18.1 1.83,-45.14 -8.07,-16.34 -16.61,-34.45 -22.76,-51.11l-82.34 160.06 37.92 11.39 -44.54 4.41c14.22,23.04 16.44,-4.59 -11.59,24 -11.3,11.53 -19.03,40.94 -25.32,46.66l-60.83 131.98c-50.7,-1.11 -37.96,1.15 -50.22,-26.41 -8.9,-20.02 -7.18,-29.07 -34.51,-34.63l2.82 -0.75c11.93,-6.45 11.42,4.96 1.6,-2.76 -4.66,-3.66 -8.43,-3.23 -14.96,-4.53l21.39 -6.65c-8.19,-14.85 -26.76,-44 -23.22,-56.65l-40.63 -70.85c-10.08,18.38 -17.46,37.57 -26.99,57.24 -4.6,9.51 -13.89,22.58 -15.59,30.35 -5.97,27.14 1.68,3.57 14.8,18.47 -44.97,5.56 -50.2,-82.69 -71.05,-106.41l-41.27 87.81c-5.84,33.13 15.17,0.49 1.59,19.26 -9.62,13.3 -37.63,39.49 -50.95,84.92 -76.37,-1.3 -55.09,5.07 -74.06,-33.48 -9.74,-19.8 -17.52,-39.58 -31.48,-58.3l-40.85 86.22 -1297.87 55.27 -32.28 -74.07 -19.64 -23.78 -20.7 54.22 -6.24 0.38 -22.83 -42.16 -20.12 37.42 -5.23 0.28 -22.76 -46.61 -11.29 9.82c0.11,13.8 -22.61,65.59 -36.52,76.47 -18.34,-15.84 -16.35,-40.38 -41.74,-70.34l-38.72 -81.36 -17.82 28.43 -27.23 -59.27c-8.08,15.8 -16.04,31.98 -23.64,47.59 -17.91,36.8 7.02,18.39 -13.35,38.41 -23.47,23.07 -25.55,85.4 -60.66,92.79l-46.61 -96.94 -26 39.15 -22.66 -38.7 -18.35 39.42c-1.56,4.53 -1.56,2.86 -4.49,9.67 -22.22,51.52 -24.01,-23.59 -28.29,-27.49 -15.23,17.43 -41.2,49.96 -59.69,64.38l-34.24 -62.56c-12.89,-12.61 -5.04,-6.2 -19.9,-16.23 -18.79,-12.69 13.76,1.38 -13.8,-47.88 -16.18,-28.89 -27.74,-66.84 -39.65,-75.17 -8.36,18.29 -19.24,38.21 -27.75,56.8 -17.57,38.38 10.13,26.8 -6.4,38.5 -34.36,24.29 -41.56,89.83 -69.18,100.92 -33.68,-8.24 0.01,-76.08 -73.87,-90.05l-10.77 -10.14c50.03,-4.47 35.52,-2.52 14.02,-42.81 -16.59,-31.11 -5.08,-37.85 -42.61,-49.13 26.6,-8.21 -3.15,-61.04 -19.11,-73.7l-41.09 75.06 -38.32 -99.19c-11.68,14.36 -17.91,43.98 -24.03,61.11 -12.37,34.62 -28.96,38.6 3.99,55.39l-10.04 -3.94 -29.01 35.64c-12.33,-17.57 -9.57,-20.42 -16.59,-33.83 -15.32,-29.25 -18.41,-1.78 -14.14,-23.15 2.69,-13.41 -9.56,-49.65 -23.43,-65.97 -16.5,16.02 -22.44,47.87 -31.67,70.28 -11.62,28.24 -35.72,49.15 1.25,57.63l-30.17 19.4 -35.29 -93.52c-14.48,12.36 -20.24,38.84 -27.54,56.55 -30.71,74.4 6.59,28 -4.62,47.81l-12.28 2.74 -53.95 -109.39 -18.39 27.34c-8.77,-14.84 -4.83,-19.31 -17.45,-31.27 -14.35,-13.59 -6.82,-3.41 -8.04,-19.42 -0.98,-12.87 -20.2,-45.84 -29.23,-62.31l-32.45 60.36 -39.93 -56.02 -10.28 3.25c29.65,-7.47 9.96,-27.02 0.42,-45.99 -6.94,-13.79 -12.7,-35.31 -24.64,-45.24 -12.7,13.85 -34.47,68.39 -43.76,88.21 -18.82,40.07 -48.2,57.8 1.09,76.39l-37.82 4.63 10.57 5.45 -33.71 30.38 -47.21 -10.58 49.05 1.33 -53.82 -12.9 46.26 -6.47c-11.48,-28.03 -26.84,-94.54 -67.44,-99.66 11.12,-6.81 28.29,6.45 11.2,-24.34 -13.6,-24.51 -12.42,-7.47 -37.08,-16.96 44.32,-18.42 -23.08,-90.54 -33.75,-123.36l-117.02 255.05 -40.03 -65.9 -39.82 78.33 -39.44 -97.24c-11.49,9.48 -19.91,44.28 -25.15,58.03 -8.76,23.05 -26.86,42.14 0.87,52.44l-39.03 31.33 -48.27 -121.03c-18.48,13.83 -25.2,49.62 -33.84,71.47 -16.6,41.89 -32.4,37.8 2.96,58.91l-35.25 9.24 -34.05 -85.52c-16.54,18.81 -54.6,97.98 -22.43,102.04 -38.45,6.73 -62.81,-78.61 -72.82,-103.92l-17.86 26.3 -56.6 -112.98 -33.04 60.26c-41.27,-68.64 -38.51,-69.4 -67.89,-142.25 -21.66,3.87 -41.29,69.06 -49.95,87.5 -16.75,35.72 -49.99,63.47 2.56,74.57l-41.01 5.92c20.28,23.35 7.96,-3.84 -12.53,26.69 -7.08,10.56 -16.79,36.34 -23.42,49.94 -19.01,39.02 -119,-19.75 -179.77,-23.88z"/>
   <path class="fil7" d="M12763.47 14780.64c-0.66,10.67 6.47,8.65 -14.65,11.69 -5.73,0.83 -19.68,0.88 -25.57,0.58 -46.41,-2.33 -34.12,-10.41 -34.94,-13.93 24.38,-2.19 53.21,-5.99 75.16,1.66zm8213.5 844.13l-8607.02 0 0.64 -990.17 19.77 -0.6c11.92,-39.51 -100.75,-49.74 -81.14,-53.58 -10.31,-14.17 46.05,-33.95 52.71,-56.38 3.5,-11.76 23.33,-81.03 27.53,-94.14l17.92 -290.09 35.54 -122.81 122.89 270.39 -46.27 17.65 66.06 50.7 41.81 140.59 48.64 159.3c8.1,14.49 16.9,58.91 14,76.82l-41.9 0.62c15.96,9.37 39.28,12.59 59.46,16.66 63.63,12.82 24.45,16.29 52.79,19.51 9.07,-14.16 22.86,-46.98 30.44,-63.04l33.45 -68.09c12.59,-44.3 52.8,-109.57 73.74,-156.29 23.13,-51.56 135.85,-51.24 182.71,-85.06 -92.95,-3.88 -140.9,13.3 -136.12,-13.11l57.68 -14.37 169.76 -15.78 -74.43 -17.98 -114.33 -25.5 339.95 -705.79 191.09 389.84 -111.46 46.31 135.71 2.43 59.61 125.45 -100.51 -0.99 115.7 28.32c8.57,36.26 -47.8,2.53 -82.16,15.32 116.2,19.06 87.81,-1.86 156.32,140.75 20.35,42.34 81.12,149.05 87.7,185.12l-238.14 -2.38 272.09 58.99 -3.74 9.39 -211.84 -15.54c28.11,12.17 108.86,26.79 149.4,35.8 100.59,22.38 68.92,1.98 105.97,61.89l137.58 287.58 -89.14 -0.83c36.07,35.13 125.82,18.9 128.46,86.41l-128.61 1.62c44.05,10.94 137.57,17.89 154.74,49.39 18.46,33.89 34.27,89.7 60.21,118.6l17.48 35.49c53.78,15.52 266.14,43.46 313.37,28.85l-0.08 -3.78 -54.87 0.52 20.09 -55.45 141.2 -1.76 92.41 -236.34 95.82 -19.19 -82.44 -21.5 132.41 -356.09c32.08,5.27 14.74,26.28 38.12,61.3 12.64,18.96 29.61,44.67 -4.62,57.42 37.33,7.97 26.79,-0.47 35.88,33.57l113.77 254.47c1181.89,-13.51 3514.34,-167.83 3994.82,-66.26l38.2 -89.04 114.75 -9.33 -99.42 -26.65 17.88 -47.76 124.5 -319.85 45.81 -103.03 33.85 77.94 40.42 96.67 -58.62 24.57 69.83 2.76 28.83 68.3 111.02 272.27 28.17 75.75c4.73,20.36 1.94,4.56 -4.67,10.69l-117.27 -1.58c30.16,11.62 94.76,19.66 121.89,26.29 14.81,3.62 17.42,-0.64 22.25,26.74l-99.82 -7.08c62.54,19.55 98.41,13.56 115.45,35.93 970.74,32.28 1217.92,37.17 1221.54,22.92 24.79,-97.55 -6.75,-101.7 126.92,-126.79l-91.17 -2.4c8.58,-73.05 42.82,-38.71 99.07,-74.39l-79.19 1.19 19.55 -81.22 27.23 -90.49 54.01 -11.58 -49.7 -2.53 45.98 -57.25 10.84 2.86 -41.8 -1.12 63.73 -234.72 71.32 198.85 0 1028.9z"/>
  </g>
 </g>
</svg>
